<?xml version="1.0" encoding="UTF-8" standalone="no"?>
<!-- Created with Inkscape (http://www.inkscape.org/) -->

<svg
   width="91.739998mm"
   height="91.74025mm"
   viewBox="0 0 91.739998 91.74025"
   version="1.1"
   id="svg5"
   inkscape:version="1.2.1 (9c6d41e410, 2022-07-14)"
   sodipodi:docname="logo.svg"
   xmlns:inkscape="http://www.inkscape.org/namespaces/inkscape"
   xmlns:sodipodi="http://sodipodi.sourceforge.net/DTD/sodipodi-0.dtd"
   xmlns="http://www.w3.org/2000/svg"
   xmlns:svg="http://www.w3.org/2000/svg">
  <sodipodi:namedview
     id="namedview7"
     pagecolor="#ffffff"
     bordercolor="#000000"
     borderopacity="0.25"
     inkscape:showpageshadow="2"
     inkscape:pageopacity="0.0"
     inkscape:pagecheckerboard="0"
     inkscape:deskcolor="#d1d1d1"
     inkscape:document-units="mm"
     showgrid="false"
     inkscape:zoom="1.4503086"
     inkscape:cx="141.69398"
     inkscape:cy="191.33858"
     inkscape:window-width="1920"
     inkscape:window-height="1001"
     inkscape:window-x="-9"
     inkscape:window-y="-9"
     inkscape:window-maximized="1"
     inkscape:current-layer="layer1" />
  <defs
     id="defs2" />
  <g
     inkscape:label="Layer 1"
     inkscape:groupmode="layer"
     id="layer1"
     transform="translate(-63.919588,-89.629788)">
    <path
       style="fill:#000000;fill-opacity:1;stroke-width:1.6"
       d="m 70.283434,142.38145 c -11.937401,-8.65123 0.838255,-49.529269 18.402208,-32.75359 17.563968,16.7757 9.42759,17.11171 17.434998,16.77284 8.00741,-0.33889 41.74015,-26.17258 46.29653,1.15378 4.55637,27.32636 -2.02098,27.18077 -21.05059,29.98533 -19.0296,2.80455 -24.96477,37.76955 -41.122018,15.73475 -16.15725,-22.03481 -8.56813,-20.96362 -12.87026,-24.80073 -4.302109,-3.83712 -7.090868,-6.09238 -7.090868,-6.09238 z"
       id="path2956" />
    <path
       style="fill:#3f2200;fill-opacity:1;stroke-width:1.6"
       d="m 71.806775,132.19932 c -9.291541,-11.44608 13.62881,-47.624647 26.25242,-26.8747 12.623625,20.74997 4.677515,18.96868 12.499785,20.71383 7.82228,1.74513 47.09185,-14.47763 44.42039,13.09689 -2.67146,27.57451 -8.98701,25.73154 -28.09408,23.51531 -19.10705,-2.21624 -33.889597,30.02123 -43.793272,4.55544 -9.903676,-25.4658 -2.850393,-22.4669 -6.012815,-27.28673 -3.162398,-4.81985 -5.272428,-7.72004 -5.272428,-7.72004 z"
       id="path3014" />
    <path
       style="fill:#663700;fill-opacity:1;stroke-width:1.6"
       d="m 74.700338,121.89767 c -6.012475,-13.46089 25.490582,-42.47448 32.313582,-19.16434 6.82299,23.31017 -0.39133,19.53297 6.71272,23.24321 7.10407,3.71022 49.23433,-1.79605 39.51708,24.14746 -9.71724,25.94351 -15.3406,22.52875 -33.22301,15.44277 -17.88238,-7.086 -40.504899,20.227 -43.480083,-6.93432 -2.975182,-27.16133 3.061594,-22.43909 1.254392,-27.91319 -1.807173,-5.4741 -3.094681,-8.82159 -3.094681,-8.82159 z"
       id="path3016" />
    <path
       style="fill:#a25700;fill-opacity:1;stroke-width:1.6"
       d="m 78.781695,112.00384 c -2.323671,-14.55836 35.615225,-34.429744 36.172615,-10.14796 0.55739,24.28182 -5.4335,18.76612 0.46821,24.1886 5.90173,5.42247 48.02156,11.00793 31.92074,33.55243 -16.1008,22.5445 -20.64875,17.79066 -36.08784,6.31782 -15.439066,-11.47285 -44.359863,9.05434 -40.203803,-17.95151 4.156064,-27.00587 8.764936,-20.8821 8.436114,-26.63741 -0.328793,-5.75531 -0.706036,-9.32197 -0.706036,-9.32197 z"
       id="path3018" />
    <path
       style="fill:#c76b00;fill-opacity:1;stroke-width:1.6"
       d="m 85.304341,104.42739 c 1.523487,-14.663711 43.312739,-24.038686 37.566549,-0.44002 -5.7462,23.5987 -10.10539,16.72039 -5.80821,23.48557 4.29719,6.76519 43.5362,23.06174 22.14905,40.67086 -21.38712,17.60912 -24.54972,11.84017 -36.49334,-3.23768 -11.943605,-15.07784 -45.191778,-2.73535 -34.187704,-27.74533 11.004083,-25.01 13.870964,-17.90203 15.04293,-23.54634 1.171994,-5.6443 1.730725,-9.18706 1.730725,-9.18706 z"
       id="path3020" />
    <path
       style="fill:#f98600;fill-opacity:1;stroke-width:1.6"
       d="m 93.744359,100.10492 c 5.266823,-13.769747 48.058561,-12.009424 36.400381,9.29791 -11.65819,21.30737 -14.08861,13.53519 -11.68881,21.18205 2.39981,7.64686 36.08392,33.54392 10.86795,45.01763 -25.21595,11.47371 -26.77767,5.08279 -34.411891,-12.57253 -7.634202,-17.65531 -42.943942,-14.33864 -25.841764,-35.64836 17.102193,-21.30974 18.031709,-13.70197 20.624596,-18.85062 2.592912,-5.14864 4.049538,-8.42608 4.049538,-8.42608 z"
       id="path3022" />
    <path
       id="path3760"
       style="fill:#ffa945;fill-opacity:1;stroke-width:1.6"
       d="m 112.59362,99.25 c -3.86306,0.192495 -7.99628,0.77147 -11.07812,3.31641 -1.47056,2.14073 -2.166563,4.68861 -3.448745,6.93421 -1.484069,3.11532 -3.261682,6.44678 -6.489558,8.04524 -2.029846,1.06348 -4.342377,1.76008 -5.917077,3.51773 -4.456357,3.86504 -8.228586,8.58421 -11.819958,13.31481 -0.511901,0.80835 -1.272235,1.66807 -1.246542,2.64894 1.24222,1.18768 2.85851,1.87227 4.329431,2.72675 6.384026,3.33546 13.224511,6.11643 18.612901,11.03928 3.196002,2.85062 5.632968,6.47863 7.271068,10.42365 1.79277,3.99604 3.19041,8.18146 5.96434,11.6365 1.36651,1.03663 3.16349,0.39606 4.6812,0.14053 4.76827,-1.10904 9.24929,-3.15578 13.67226,-5.20594 1.51514,-0.76777 3.27654,-1.86614 3.49307,-3.70929 0.19468,-2.27075 -1.05805,-4.3237 -2.03794,-6.27804 -4.09905,-7.51311 -10.50564,-13.3638 -15.33398,-20.36328 -2.3495,-3.56168 -4.02775,-7.89528 -3.30664,-12.2168 0.54466,-2.72676 2.47434,-4.86896 4.43979,-6.71019 3.39632,-3.54097 5.9582,-7.85441 8.30683,-12.17079 0.50267,-1.08443 1.24417,-2.10365 1.4897,-3.28308 0.12536,-0.85233 -0.58791,-1.41489 -1.2539,-1.76953 -2.70673,-1.621773 -5.96071,-1.892769 -9.04442,-2.030916 -0.42782,-0.0168 -0.85571,-0.0067 -1.28371,-0.0062 z" />
    <path
       id="path3777"
       style="fill:#ffc27c;fill-opacity:1;stroke-width:1.6"
       d="m 111.54089,106.78906 c -1.49857,0.0946 -3.03968,0.28573 -4.38867,0.99024 -2.38737,4.67079 -4.25398,9.82229 -8.175411,13.48593 -1.97089,1.91105 -4.458891,3.1423 -6.918345,4.29141 -2.358746,1.42168 -4.092022,3.62226 -5.996125,5.56665 -0.982726,1.08809 -1.99792,2.26631 -2.939422,3.44116 6.758926,3.45225 13.784489,6.85171 19.100543,12.41705 4.42092,4.5016 7.16852,10.30074 9.46908,16.09682 0.36565,0.7944 0.71549,1.59743 1.13546,2.36504 3.26611,-0.87681 6.40155,-2.17715 9.44922,-3.63086 -3.91657,-7.31187 -10.20574,-12.92989 -14.77593,-19.7909 -2.9227,-4.28971 -5.12106,-9.2915 -5.1029,-14.5633 -0.0291,-4.00284 1.29208,-8.04006 3.92068,-11.09037 2.35843,-2.90551 5.22376,-5.38872 7.00795,-8.69325 0.2552,-0.46542 0.99939,-1.17192 0.003,-0.95202 -0.59639,0.007 -1.1925,0.0468 -1.78867,0.0664 z" />
  </g>
</svg>
